<mxfile host="65bd71144e">
    <diagram id="VAoTH937Xs2nRnj3vIs8" name="Page-1">
        <mxGraphModel dx="1170" dy="523" grid="1" gridSize="10" guides="1" tooltips="1" connect="1" arrows="1" fold="1" page="1" pageScale="1" pageWidth="827" pageHeight="1169" math="0" shadow="0">
            <root>
                <mxCell id="0"/>
                <mxCell id="1" parent="0"/>
                <mxCell id="3" value="&lt;font face=&quot;Courier New&quot;&gt;foo(100,&amp;nbsp; *L,&amp;nbsp; &amp;nbsp; 1000,&amp;nbsp; *L&amp;nbsp; &amp;nbsp;, x=0,&amp;nbsp; **D1&amp;nbsp; &amp;nbsp;)&lt;br&gt;&lt;br&gt;&lt;br&gt;foo(100, 10, 20, 1000, 10, 20, x=0, a=1, b=2)&amp;nbsp;&lt;br&gt;&lt;/font&gt;" style="text;html=1;strokeColor=none;fillColor=none;align=left;verticalAlign=top;whiteSpace=wrap;rounded=0;" vertex="1" parent="1">
                    <mxGeometry x="90" y="120" width="340" height="80" as="geometry"/>
                </mxCell>
                <mxCell id="4" value="" style="endArrow=classic;html=1;fontFamily=Courier New;strokeColor=#3333FF;" edge="1" parent="1">
                    <mxGeometry width="50" height="50" relative="1" as="geometry">
                        <mxPoint x="174" y="140" as="sourcePoint"/>
                        <mxPoint x="164" y="172" as="targetPoint"/>
                    </mxGeometry>
                </mxCell>
                <mxCell id="5" value="" style="endArrow=classic;html=1;fontFamily=Courier New;strokeColor=#3333FF;" edge="1" parent="1">
                    <mxGeometry width="50" height="50" relative="1" as="geometry">
                        <mxPoint x="174" y="140" as="sourcePoint"/>
                        <mxPoint x="188" y="172" as="targetPoint"/>
                    </mxGeometry>
                </mxCell>
                <mxCell id="6" value="" style="endArrow=classic;html=1;fontFamily=Courier New;strokeColor=#3333FF;" edge="1" parent="1">
                    <mxGeometry width="50" height="50" relative="1" as="geometry">
                        <mxPoint x="275" y="140" as="sourcePoint"/>
                        <mxPoint x="265" y="172" as="targetPoint"/>
                    </mxGeometry>
                </mxCell>
                <mxCell id="7" value="" style="endArrow=classic;html=1;fontFamily=Courier New;strokeColor=#3333FF;" edge="1" parent="1">
                    <mxGeometry width="50" height="50" relative="1" as="geometry">
                        <mxPoint x="275" y="140" as="sourcePoint"/>
                        <mxPoint x="289" y="172" as="targetPoint"/>
                    </mxGeometry>
                </mxCell>
                <mxCell id="8" value="" style="endArrow=classic;html=1;fontFamily=Courier New;strokeColor=#3333FF;" edge="1" parent="1">
                    <mxGeometry width="50" height="50" relative="1" as="geometry">
                        <mxPoint x="375" y="140" as="sourcePoint"/>
                        <mxPoint x="365" y="172" as="targetPoint"/>
                    </mxGeometry>
                </mxCell>
                <mxCell id="9" value="" style="endArrow=classic;html=1;fontFamily=Courier New;strokeColor=#3333FF;" edge="1" parent="1">
                    <mxGeometry width="50" height="50" relative="1" as="geometry">
                        <mxPoint x="375" y="140" as="sourcePoint"/>
                        <mxPoint x="389" y="172" as="targetPoint"/>
                    </mxGeometry>
                </mxCell>
            </root>
        </mxGraphModel>
    </diagram>
</mxfile>